<svg xmlns="http://www.w3.org/2000/svg" xmlns:v="https://svgstorm.com"
viewBox = "0 0 480 290"
width="480"
height="290">
<g fill="None" fill-opacity="0.0" stroke="#004D76" stroke-opacity="0.01" stroke-width="0.3"><path d="
M 0.00 290.00 
L 480.00 290.00
L 480.00 0.00
L 0.00 0.00
L 0.00 290.00
M 240.00 21.00 
C 253.50 35.33 267.71 49.55 282.00 63.00
C 272.66 73.83 261.29 83.22 252.00 94.00
C 248.09 93.50 246.43 88.56 243.00 87.00
C 250.18 79.00 258.04 71.12 266.00 64.00
C 257.99 54.50 247.96 46.45 240.00 37.00
C 229.77 44.12 220.87 54.93 212.00 64.00
C 225.33 78.08 239.71 92.61 254.00 106.00
C 252.27 109.11 248.67 110.92 247.00 114.00
C 244.38 112.11 241.76 109.65 240.00 107.00
C 234.82 108.58 231.42 113.90 227.00 117.00
C 243.09 136.25 262.94 154.12 281.00 172.00
C 269.40 187.41 252.73 200.12 240.00 215.00
C 224.26 203.07 211.21 186.06 196.00 173.00
C 207.17 161.00 219.04 149.12 231.00 138.00
C 227.97 133.53 222.98 130.43 220.00 126.00
C 208.00 137.17 196.12 149.04 185.00 161.00
C 170.17 147.66 156.78 132.29 142.00 119.00
C 153.60 103.59 170.27 90.88 183.00 76.00
C 194.40 83.61 203.13 96.26 214.00 105.00
C 213.78 108.54 209.26 109.93 208.00 113.00
C 199.44 107.54 192.20 98.41 185.00 91.00
C 175.51 99.01 167.45 109.04 158.00 117.00
C 163.35 127.97 175.59 135.14 183.00 145.00
C 200.08 131.74 214.45 113.39 231.00 99.00
C 219.83 87.00 207.95 75.12 196.00 64.00
C 210.27 49.56 224.44 33.41 240.00 21.00
M 294.00 76.00 
C 307.17 90.00 321.04 103.88 335.00 117.00
C 323.40 132.41 306.73 145.12 294.00 160.00
C 281.43 150.56 270.21 137.40 259.00 126.00
C 256.38 127.89 253.76 130.35 252.00 133.00
C 248.09 132.50 246.43 127.56 243.00 126.00
C 259.60 109.23 276.10 90.74 294.00 76.00
M 185.00 101.00 
C 188.62 105.04 193.07 110.06 197.00 110.00
C 196.43 112.41 197.27 115.16 201.00 117.00
C 193.99 123.95 189.79 133.55 180.00 136.00
C 180.31 129.00 170.35 123.24 166.00 117.00
C 171.70 112.48 177.83 105.49 185.00 101.00
M 179.00 225.00 
C 180.67 230.50 176.75 231.96 172.00 231.00
C 170.33 225.50 174.25 224.04 179.00 225.00
M 320.00 228.00 
C 320.00 231.33 320.00 234.67 320.00 238.00
C 324.33 238.00 328.67 238.00 333.00 238.00
C 335.96 247.43 325.87 244.76 320.00 245.00
C 320.00 253.00 320.00 261.00 320.00 269.00
C 307.13 271.18 315.28 252.75 313.00 245.00
C 309.67 245.00 306.33 245.00 303.00 245.00
C 300.52 237.25 307.32 237.40 313.00 238.00
C 312.38 232.29 312.22 225.61 320.00 228.00
M 85.00 269.00 
C 68.51 272.17 88.15 239.38 68.00 245.00
C 68.00 253.00 68.00 261.00 68.00 269.00
C 59.11 270.68 59.78 261.96 61.00 254.00 C 62.22 246.04 56.52 242.72 48.00 245.00
C 48.00 253.00 48.00 261.00 48.00 269.00
C 35.72 267.94 45.49 257.48 42.00 247.00 C 38.51 236.52 54.53 236.99 61.07 238.93 C 67.61 240.87 77.32 234.02 82.75 242.25 C 88.18 250.47 83.31 259.79 85.00 269.00
M 118.00 238.00 
C 126.56 240.60 127.05 254.09 124.22 262.22 C 121.39 270.36 108.62 269.70 99.93 268.07 C 91.24 266.45 89.67 252.34 92.33 244.33 C 94.99 236.32 111.29 235.96 118.00 238.00
M 165.00 269.00 
C 153.60 270.81 159.36 259.10 158.00 251.00 C 156.64 242.90 144.67 244.98 138.00 245.00
C 138.00 253.00 138.00 261.00 138.00 269.00
C 126.38 269.06 135.01 259.00 132.00 250.00 C 128.99 241.00 136.85 236.21 145.00 238.00 C 153.15 239.79 159.14 236.94 163.30 244.70 C 167.47 252.45 163.70 260.59 165.00 269.00
M 179.00 238.00 
C 179.00 248.33 179.00 258.67 179.00 269.00
C 169.34 271.98 171.82 260.19 172.00 254.00 C 172.18 247.81 168.82 234.97 179.00 238.00
M 196.00 258.00 
C 193.58 246.28 202.41 254.33 209.00 251.00 C 215.59 247.67 210.22 244.67 202.00 245.00 C 193.78 245.33 192.04 247.77 193.00 257.00 C 193.96 266.23 202.41 260.25 209.00 262.00
C 212.47 273.82 190.65 270.07 187.25 263.75 C 183.85 257.43 184.61 239.75 193.23 238.23 C 201.85 236.71 216.64 234.92 218.97 246.03 C 221.30 257.14 204.85 260.49 196.00 258.00
M 250.00 238.00 
C 253.68 252.12 232.93 239.40 230.00 248.00
C 239.35 246.35 256.05 247.89 253.00 261.00 C 249.95 274.11 233.46 267.16 224.00 269.00
C 223.28 256.62 232.42 264.70 242.00 262.00 C 251.58 259.30 241.16 251.81 233.00 255.00 C 224.84 258.19 220.23 244.67 226.25 240.25 C 232.28 235.84 242.80 238.94 250.00 238.00
M 297.00 238.00 
C 300.68 252.12 279.93 239.40 277.00 248.00
C 286.28 246.43 302.79 248.01 300.00 261.00 C 297.21 273.99 280.25 267.26 271.00 269.00
C 270.20 255.60 279.52 266.10 289.00 262.00 C 298.48 257.90 285.48 252.94 278.00 255.00 C 270.52 257.06 266.96 243.52 273.25 240.25 C 279.53 236.98 289.53 238.12 297.00 238.00
M 364.00 238.00 
C 372.40 240.55 376.45 264.42 364.92 267.92 C 353.39 271.41 337.44 270.31 337.00 255.00 C 336.56 239.68 348.98 233.44 364.00 238.00
M 404.00 238.00 
C 407.51 251.10 391.99 241.11 386.33 245.33 C 380.67 249.55 385.73 262.78 384.00 269.00
C 373.28 269.99 375.89 253.94 377.93 244.93 C 379.96 235.91 396.69 237.81 404.00 238.00
M 419.00 258.00 
C 416.54 245.57 425.45 255.29 432.00 251.00 C 438.55 246.71 430.55 244.85 423.00 245.00 C 415.45 245.15 413.17 249.77 415.00 258.00 C 416.83 266.23 426.51 259.99 432.00 262.00
C 434.68 272.69 413.69 270.94 410.25 264.75 C 406.81 258.57 406.96 240.00 415.70 238.70 C 424.43 237.39 438.61 234.50 440.99 246.01 C 443.37 257.52 428.05 260.22 419.00 258.00
M 263.00 262.00 
C 266.65 263.30 264.46 270.45 260.32 268.66 C 256.18 266.87 258.95 260.56 263.00 262.00 Z"/>
</g>
<g fill="None" fill-opacity="0.0" stroke="#004D76" stroke-opacity="0.98" stroke-width="0.3"><path d="
M 240.00 21.00 
C 224.44 33.41 210.27 49.56 196.00 64.00
C 207.95 75.12 219.83 87.00 231.00 99.00
C 214.45 113.39 200.08 131.74 183.00 145.00
C 175.59 135.14 163.35 127.97 158.00 117.00
C 167.45 109.04 175.51 99.01 185.00 91.00
C 192.20 98.41 199.44 107.54 208.00 113.00
C 209.26 109.93 213.78 108.54 214.00 105.00
C 203.13 96.26 194.40 83.61 183.00 76.00
C 170.27 90.88 153.60 103.59 142.00 119.00
C 156.78 132.29 170.17 147.66 185.00 161.00
C 196.12 149.04 208.00 137.17 220.00 126.00
C 222.98 130.43 227.97 133.53 231.00 138.00
C 219.04 149.12 207.17 161.00 196.00 173.00
C 211.21 186.06 224.26 203.07 240.00 215.00
C 252.73 200.12 269.40 187.41 281.00 172.00
C 262.94 154.12 243.09 136.25 227.00 117.00
C 231.42 113.90 234.82 108.58 240.00 107.00
C 241.76 109.65 244.38 112.11 247.00 114.00
C 248.67 110.92 252.27 109.11 254.00 106.00
C 239.71 92.61 225.33 78.08 212.00 64.00
C 220.87 54.93 229.77 44.12 240.00 37.00
C 247.96 46.45 257.99 54.50 266.00 64.00
C 258.04 71.12 250.18 79.00 243.00 87.00
C 246.43 88.56 248.09 93.50 252.00 94.00
C 261.29 83.22 272.66 73.83 282.00 63.00
C 267.71 49.55 253.50 35.33 240.00 21.00
M 240.00 147.00 
C 247.84 155.66 256.38 164.22 265.00 172.00
C 256.99 181.50 246.96 189.55 239.00 199.00
C 229.84 191.33 222.11 181.63 213.00 174.00
C 220.21 164.31 230.33 154.18 240.00 147.00 Z"/>
</g>
<g fill="None" fill-opacity="0.0" stroke="#004D76" stroke-opacity="0.97" stroke-width="0.3"><path d="
M 294.00 76.00 
C 276.10 90.74 259.60 109.23 243.00 126.00
C 246.43 127.56 248.09 132.50 252.00 133.00
C 253.76 130.35 256.38 127.89 259.00 126.00
C 270.21 137.40 281.43 150.56 294.00 160.00
C 306.73 145.12 323.40 132.41 335.00 117.00
C 321.04 103.88 307.17 90.00 294.00 76.00
M 294.00 92.00 
C 301.84 100.66 310.38 109.22 319.00 117.00
C 312.71 127.06 301.41 134.47 294.00 144.00
C 285.21 135.40 274.76 126.89 268.00 117.00
C 276.96 109.78 284.81 99.53 294.00 92.00 Z"/>
</g>
<g fill="None" fill-opacity="0.0" stroke="#004D76" stroke-opacity="0.00" stroke-width="0.3"><path d="
M 294.00 92.00 
C 284.81 99.53 276.96 109.78 268.00 117.00
C 274.76 126.89 285.21 135.40 294.00 144.00
C 301.41 134.47 312.71 127.06 319.00 117.00
C 310.38 109.22 301.84 100.66 294.00 92.00 Z"/>
</g>
<g fill="None" fill-opacity="0.0" stroke="#E09A38" stroke-opacity="0.88" stroke-width="0.3"><path d="
M 185.00 101.00 
C 177.83 105.49 171.70 112.48 166.00 117.00
C 170.35 123.24 180.31 129.00 180.00 136.00
C 189.79 133.55 193.99 123.95 201.00 117.00
C 197.27 115.16 196.43 112.41 197.00 110.00
C 193.07 110.06 188.62 105.04 185.00 101.00 Z"/>
</g>
<g fill="None" fill-opacity="0.0" stroke="#004D76" stroke-opacity="0.00" stroke-width="0.3"><path d="
M 240.00 147.00 
C 230.33 154.18 220.21 164.31 213.00 174.00
C 222.11 181.63 229.84 191.33 239.00 199.00
C 246.96 189.55 256.99 181.50 265.00 172.00
C 256.38 164.22 247.84 155.66 240.00 147.00 Z"/>
</g>
<g fill="None" fill-opacity="0.0" stroke="#004D76" stroke-opacity="0.99" stroke-width="0.3"><path d="
M 179.00 225.00 
C 174.25 224.04 170.33 225.50 172.00 231.00
C 176.75 231.96 180.67 230.50 179.00 225.00 Z"/>
</g>
<g fill="None" fill-opacity="0.0" stroke="#004D76" stroke-opacity="1.00" stroke-width="0.3"><path d="
M 320.00 228.00 
C 312.22 225.61 312.38 232.29 313.00 238.00
C 307.32 237.40 300.52 237.25 303.00 245.00
C 306.33 245.00 309.67 245.00 313.00 245.00
C 315.28 252.75 307.13 271.18 320.00 269.00
C 320.00 261.00 320.00 253.00 320.00 245.00
C 325.87 244.76 335.96 247.43 333.00 238.00
C 328.67 238.00 324.33 238.00 320.00 238.00
C 320.00 234.67 320.00 231.33 320.00 228.00 Z"/>
</g>
<g fill="None" fill-opacity="0.0" stroke="#004D76" stroke-opacity="0.99" stroke-width="0.3"><path d="
M 85.00 269.00 
C 83.31 259.79 88.18 250.47 82.75 242.25 C 77.32 234.02 67.61 240.87 61.07 238.93 C 54.53 236.99 38.51 236.52 42.00 247.00 C 45.49 257.48 35.72 267.94 48.00 269.00
C 48.00 261.00 48.00 253.00 48.00 245.00
C 56.52 242.72 62.22 246.04 61.00 254.00 C 59.78 261.96 59.11 270.68 68.00 269.00
C 68.00 261.00 68.00 253.00 68.00 245.00
C 88.15 239.38 68.51 272.17 85.00 269.00 Z"/>
</g>
<g fill="None" fill-opacity="0.0" stroke="#004D76" stroke-opacity="0.96" stroke-width="0.3"><path d="
M 118.00 238.00 
C 111.29 235.96 94.99 236.32 92.33 244.33 C 89.67 252.34 91.24 266.45 99.93 268.07 C 108.62 269.70 121.39 270.36 124.22 262.22 C 127.05 254.09 126.56 240.60 118.00 238.00
M 117.00 246.00 
C 118.68 247.19 119.50 259.73 116.74 260.74 C 113.98 261.76 102.99 261.31 100.33 260.67 C 97.67 260.03 97.93 246.69 100.26 246.26 C 102.59 245.83 114.91 244.52 117.00 246.00 Z"/>
</g>
<g fill="None" fill-opacity="0.0" stroke="#004D76" stroke-opacity="1.00" stroke-width="0.3"><path d="
M 165.00 269.00 
C 163.70 260.59 167.47 252.45 163.30 244.70 C 159.14 236.94 153.15 239.79 145.00 238.00 C 136.85 236.21 128.99 241.00 132.00 250.00 C 135.01 259.00 126.38 269.06 138.00 269.00
C 138.00 261.00 138.00 253.00 138.00 245.00
C 144.67 244.98 156.64 242.90 158.00 251.00 C 159.36 259.10 153.60 270.81 165.00 269.00 Z"/>
</g>
<g fill="None" fill-opacity="0.0" stroke="#004D76" stroke-opacity="0.99" stroke-width="0.3"><path d="
M 179.00 238.00 
C 168.82 234.97 172.18 247.81 172.00 254.00 C 171.82 260.19 169.34 271.98 179.00 269.00
C 179.00 258.67 179.00 248.33 179.00 238.00 Z"/>
</g>
<g fill="None" fill-opacity="0.0" stroke="#004D76" stroke-opacity="0.99" stroke-width="0.3"><path d="
M 196.00 258.00 
C 204.85 260.49 221.30 257.14 218.97 246.03 C 216.64 234.92 201.85 236.71 193.23 238.23 C 184.61 239.75 183.85 257.43 187.25 263.75 C 190.65 270.07 212.47 273.82 209.00 262.00
C 202.41 260.25 193.96 266.23 193.00 257.00 C 192.04 247.77 193.78 245.33 202.00 245.00 C 210.22 244.67 215.59 247.67 209.00 251.00 C 202.41 254.33 193.58 246.28 196.00 258.00 Z"/>
</g>
<g fill="None" fill-opacity="0.0" stroke="#004D76" stroke-opacity="1.00" stroke-width="0.3"><path d="
M 250.00 238.00 
C 242.80 238.94 232.28 235.84 226.25 240.25 C 220.23 244.67 224.84 258.19 233.00 255.00 C 241.16 251.81 251.58 259.30 242.00 262.00 C 232.42 264.70 223.28 256.62 224.00 269.00
C 233.46 267.16 249.95 274.11 253.00 261.00 C 256.05 247.89 239.35 246.35 230.00 248.00
C 232.93 239.40 253.68 252.12 250.00 238.00 Z"/>
</g>
<g fill="None" fill-opacity="0.0" stroke="#004D76" stroke-opacity="0.99" stroke-width="0.3"><path d="
M 297.00 238.00 
C 289.53 238.12 279.53 236.98 273.25 240.25 C 266.96 243.52 270.52 257.06 278.00 255.00 C 285.48 252.94 298.48 257.90 289.00 262.00 C 279.52 266.10 270.20 255.60 271.00 269.00
C 280.25 267.26 297.21 273.99 300.00 261.00 C 302.79 248.01 286.28 246.43 277.00 248.00
C 279.93 239.40 300.68 252.12 297.00 238.00 Z"/>
</g>
<g fill="None" fill-opacity="0.0" stroke="#004D76" stroke-opacity="0.95" stroke-width="0.3"><path d="
M 364.00 238.00 
C 348.98 233.44 336.56 239.68 337.00 255.00 C 337.44 270.31 353.39 271.41 364.92 267.92 C 376.45 264.42 372.40 240.55 364.00 238.00
M 363.00 246.00 
C 363.00 251.00 363.00 256.00 363.00 261.00
C 357.00 261.00 351.00 261.00 345.00 261.00
C 345.00 256.00 345.00 251.00 345.00 246.00
C 351.00 246.00 357.00 246.00 363.00 246.00 Z"/>
</g>
<g fill="None" fill-opacity="0.0" stroke="#004D76" stroke-opacity="0.99" stroke-width="0.3"><path d="
M 404.00 238.00 
C 396.69 237.81 379.96 235.91 377.93 244.93 C 375.89 253.94 373.28 269.99 384.00 269.00
C 385.73 262.78 380.67 249.55 386.33 245.33 C 391.99 241.11 407.51 251.10 404.00 238.00 Z"/>
</g>
<g fill="None" fill-opacity="0.0" stroke="#004D76" stroke-opacity="0.99" stroke-width="0.3"><path d="
M 419.00 258.00 
C 428.05 260.22 443.37 257.52 440.99 246.01 C 438.61 234.50 424.43 237.39 415.70 238.70 C 406.96 240.00 406.81 258.57 410.25 264.75 C 413.69 270.94 434.68 272.69 432.00 262.00
C 426.51 259.99 416.83 266.23 415.00 258.00 C 413.17 249.77 415.45 245.15 423.00 245.00 C 430.55 244.85 438.55 246.71 432.00 251.00 C 425.45 255.29 416.54 245.57 419.00 258.00 Z"/>
</g>
<g fill="None" fill-opacity="0.0" stroke="#004D76" stroke-opacity="0.01" stroke-width="0.3"><path d="
M 117.00 246.00 
C 114.91 244.52 102.59 245.83 100.26 246.26 C 97.93 246.69 97.67 260.03 100.33 260.67 C 102.99 261.31 113.98 261.76 116.74 260.74 C 119.50 259.73 118.68 247.19 117.00 246.00 Z"/>
</g>
<g fill="None" fill-opacity="0.0" stroke="#004D76" stroke-opacity="0.01" stroke-width="0.3"><path d="
M 363.00 246.00 
C 357.00 246.00 351.00 246.00 345.00 246.00
C 345.00 251.00 345.00 256.00 345.00 261.00
C 351.00 261.00 357.00 261.00 363.00 261.00
C 363.00 256.00 363.00 251.00 363.00 246.00 Z"/>
</g>
<g fill="None" fill-opacity="0.0" stroke="#004D76" stroke-opacity="0.98" stroke-width="0.3"><path d="
M 263.00 262.00 
C 258.95 260.56 256.18 266.87 260.32 268.66 C 264.46 270.45 266.65 263.30 263.00 262.00 Z"/>
</g>
<g fill="#004D76" fill-opacity="0.01" stroke="None"><path d="
M 0.00 290.00 
L 480.00 290.00
L 480.00 0.00
L 0.00 0.00
L 0.00 290.00
M 240.00 21.00 
C 253.50 35.33 267.71 49.55 282.00 63.00
C 272.66 73.83 261.29 83.22 252.00 94.00
C 248.09 93.50 246.43 88.56 243.00 87.00
C 250.18 79.00 258.04 71.12 266.00 64.00
C 257.99 54.50 247.96 46.45 240.00 37.00
C 229.77 44.12 220.87 54.93 212.00 64.00
C 225.33 78.08 239.71 92.61 254.00 106.00
C 252.27 109.11 248.67 110.92 247.00 114.00
C 244.38 112.11 241.76 109.65 240.00 107.00
C 234.82 108.58 231.42 113.90 227.00 117.00
C 243.09 136.25 262.94 154.12 281.00 172.00
C 269.40 187.41 252.73 200.12 240.00 215.00
C 224.26 203.07 211.21 186.06 196.00 173.00
C 207.17 161.00 219.04 149.12 231.00 138.00
C 227.97 133.53 222.98 130.43 220.00 126.00
C 208.00 137.17 196.12 149.04 185.00 161.00
C 170.17 147.66 156.78 132.29 142.00 119.00
C 153.60 103.59 170.27 90.88 183.00 76.00
C 194.40 83.61 203.13 96.26 214.00 105.00
C 213.78 108.54 209.26 109.93 208.00 113.00
C 199.44 107.54 192.20 98.41 185.00 91.00
C 175.51 99.01 167.45 109.04 158.00 117.00
C 163.35 127.97 175.59 135.14 183.00 145.00
C 200.08 131.74 214.45 113.39 231.00 99.00
C 219.83 87.00 207.95 75.12 196.00 64.00
C 210.27 49.56 224.44 33.41 240.00 21.00
M 294.00 76.00 
C 307.17 90.00 321.04 103.88 335.00 117.00
C 323.40 132.41 306.73 145.12 294.00 160.00
C 281.43 150.56 270.21 137.40 259.00 126.00
C 256.38 127.89 253.76 130.35 252.00 133.00
C 248.09 132.50 246.43 127.56 243.00 126.00
C 259.60 109.23 276.10 90.74 294.00 76.00
M 185.00 101.00 
C 188.62 105.04 193.07 110.06 197.00 110.00
C 196.43 112.41 197.27 115.16 201.00 117.00
C 193.99 123.95 189.79 133.55 180.00 136.00
C 180.31 129.00 170.35 123.24 166.00 117.00
C 171.70 112.48 177.83 105.49 185.00 101.00
M 179.00 225.00 
C 180.67 230.50 176.75 231.96 172.00 231.00
C 170.33 225.50 174.25 224.04 179.00 225.00
M 320.00 228.00 
C 320.00 231.33 320.00 234.67 320.00 238.00
C 324.33 238.00 328.67 238.00 333.00 238.00
C 335.96 247.43 325.87 244.76 320.00 245.00
C 320.00 253.00 320.00 261.00 320.00 269.00
C 307.13 271.18 315.28 252.75 313.00 245.00
C 309.67 245.00 306.33 245.00 303.00 245.00
C 300.52 237.25 307.32 237.40 313.00 238.00
C 312.38 232.29 312.22 225.61 320.00 228.00
M 85.00 269.00 
C 68.51 272.17 88.15 239.38 68.00 245.00
C 68.00 253.00 68.00 261.00 68.00 269.00
C 59.11 270.68 59.78 261.96 61.00 254.00 C 62.22 246.04 56.52 242.72 48.00 245.00
C 48.00 253.00 48.00 261.00 48.00 269.00
C 35.72 267.94 45.49 257.48 42.00 247.00 C 38.51 236.52 54.53 236.99 61.07 238.93 C 67.61 240.87 77.32 234.02 82.75 242.25 C 88.18 250.47 83.31 259.79 85.00 269.00
M 118.00 238.00 
C 126.56 240.60 127.05 254.09 124.22 262.22 C 121.39 270.36 108.62 269.70 99.93 268.07 C 91.24 266.45 89.67 252.34 92.33 244.33 C 94.99 236.32 111.29 235.96 118.00 238.00
M 165.00 269.00 
C 153.60 270.81 159.36 259.10 158.00 251.00 C 156.64 242.90 144.67 244.98 138.00 245.00
C 138.00 253.00 138.00 261.00 138.00 269.00
C 126.38 269.06 135.01 259.00 132.00 250.00 C 128.99 241.00 136.85 236.21 145.00 238.00 C 153.15 239.79 159.14 236.94 163.30 244.70 C 167.47 252.45 163.70 260.59 165.00 269.00
M 179.00 238.00 
C 179.00 248.33 179.00 258.67 179.00 269.00
C 169.34 271.98 171.82 260.19 172.00 254.00 C 172.18 247.81 168.82 234.97 179.00 238.00
M 196.00 258.00 
C 193.58 246.28 202.41 254.33 209.00 251.00 C 215.59 247.67 210.22 244.67 202.00 245.00 C 193.78 245.33 192.04 247.77 193.00 257.00 C 193.96 266.23 202.41 260.25 209.00 262.00
C 212.47 273.82 190.65 270.07 187.25 263.75 C 183.85 257.43 184.61 239.75 193.23 238.23 C 201.85 236.71 216.64 234.92 218.97 246.03 C 221.30 257.14 204.85 260.49 196.00 258.00
M 250.00 238.00 
C 253.68 252.12 232.93 239.40 230.00 248.00
C 239.35 246.35 256.05 247.89 253.00 261.00 C 249.95 274.11 233.46 267.16 224.00 269.00
C 223.28 256.62 232.42 264.70 242.00 262.00 C 251.58 259.30 241.16 251.81 233.00 255.00 C 224.84 258.19 220.23 244.67 226.25 240.25 C 232.28 235.84 242.80 238.94 250.00 238.00
M 297.00 238.00 
C 300.68 252.12 279.93 239.40 277.00 248.00
C 286.28 246.43 302.79 248.01 300.00 261.00 C 297.21 273.99 280.25 267.26 271.00 269.00
C 270.20 255.60 279.52 266.10 289.00 262.00 C 298.48 257.90 285.48 252.94 278.00 255.00 C 270.52 257.06 266.96 243.52 273.25 240.25 C 279.53 236.98 289.53 238.12 297.00 238.00
M 364.00 238.00 
C 372.40 240.55 376.45 264.42 364.92 267.92 C 353.39 271.41 337.44 270.31 337.00 255.00 C 336.56 239.68 348.98 233.44 364.00 238.00
M 404.00 238.00 
C 407.51 251.10 391.99 241.11 386.33 245.33 C 380.67 249.55 385.73 262.78 384.00 269.00
C 373.28 269.99 375.89 253.94 377.93 244.93 C 379.96 235.91 396.69 237.81 404.00 238.00
M 419.00 258.00 
C 416.54 245.57 425.45 255.29 432.00 251.00 C 438.55 246.71 430.55 244.85 423.00 245.00 C 415.45 245.15 413.17 249.77 415.00 258.00 C 416.83 266.23 426.51 259.99 432.00 262.00
C 434.68 272.69 413.69 270.94 410.25 264.75 C 406.81 258.57 406.96 240.00 415.70 238.70 C 424.43 237.39 438.61 234.50 440.99 246.01 C 443.37 257.52 428.05 260.22 419.00 258.00
M 263.00 262.00 
C 266.65 263.30 264.46 270.45 260.32 268.66 C 256.18 266.87 258.95 260.56 263.00 262.00 Z"/>
</g>
<g fill="#004D76" fill-opacity="0.98" stroke="None"><path d="
M 240.00 21.00 
C 224.44 33.41 210.27 49.56 196.00 64.00
C 207.95 75.12 219.83 87.00 231.00 99.00
C 214.45 113.39 200.08 131.74 183.00 145.00
C 175.59 135.14 163.35 127.97 158.00 117.00
C 167.45 109.04 175.51 99.01 185.00 91.00
C 192.20 98.41 199.44 107.54 208.00 113.00
C 209.26 109.93 213.78 108.54 214.00 105.00
C 203.13 96.26 194.40 83.61 183.00 76.00
C 170.27 90.88 153.60 103.59 142.00 119.00
C 156.78 132.29 170.17 147.66 185.00 161.00
C 196.12 149.04 208.00 137.17 220.00 126.00
C 222.98 130.43 227.97 133.53 231.00 138.00
C 219.04 149.12 207.17 161.00 196.00 173.00
C 211.21 186.06 224.26 203.07 240.00 215.00
C 252.73 200.12 269.40 187.41 281.00 172.00
C 262.94 154.12 243.09 136.25 227.00 117.00
C 231.42 113.90 234.82 108.58 240.00 107.00
C 241.76 109.65 244.38 112.11 247.00 114.00
C 248.67 110.92 252.27 109.11 254.00 106.00
C 239.71 92.61 225.33 78.08 212.00 64.00
C 220.87 54.93 229.77 44.12 240.00 37.00
C 247.96 46.45 257.99 54.50 266.00 64.00
C 258.04 71.12 250.18 79.00 243.00 87.00
C 246.43 88.56 248.09 93.50 252.00 94.00
C 261.29 83.22 272.66 73.83 282.00 63.00
C 267.71 49.55 253.50 35.33 240.00 21.00
M 240.00 147.00 
C 247.84 155.66 256.38 164.22 265.00 172.00
C 256.99 181.50 246.96 189.55 239.00 199.00
C 229.84 191.33 222.11 181.63 213.00 174.00
C 220.21 164.31 230.33 154.18 240.00 147.00 Z"/>
</g>
<g fill="#004D76" fill-opacity="0.97" stroke="None"><path d="
M 294.00 76.00 
C 276.10 90.74 259.60 109.23 243.00 126.00
C 246.43 127.56 248.09 132.50 252.00 133.00
C 253.76 130.35 256.38 127.89 259.00 126.00
C 270.21 137.40 281.43 150.56 294.00 160.00
C 306.73 145.12 323.40 132.41 335.00 117.00
C 321.04 103.88 307.17 90.00 294.00 76.00
M 294.00 92.00 
C 301.84 100.66 310.38 109.22 319.00 117.00
C 312.71 127.06 301.41 134.47 294.00 144.00
C 285.21 135.40 274.76 126.89 268.00 117.00
C 276.96 109.78 284.81 99.53 294.00 92.00 Z"/>
</g>
<g fill="#004D76" fill-opacity="0.00" stroke="None"><path d="
M 294.00 92.00 
C 284.81 99.53 276.96 109.78 268.00 117.00
C 274.76 126.89 285.21 135.40 294.00 144.00
C 301.41 134.47 312.71 127.06 319.00 117.00
C 310.38 109.22 301.84 100.66 294.00 92.00 Z"/>
</g>
<g fill="#E09A38" fill-opacity="0.88" stroke="None"><path d="
M 185.00 101.00 
C 177.83 105.49 171.70 112.48 166.00 117.00
C 170.35 123.24 180.31 129.00 180.00 136.00
C 189.79 133.55 193.99 123.95 201.00 117.00
C 197.27 115.16 196.43 112.41 197.00 110.00
C 193.07 110.06 188.62 105.04 185.00 101.00 Z"/>
</g>
<g fill="#004D76" fill-opacity="0.00" stroke="None"><path d="
M 240.00 147.00 
C 230.33 154.18 220.21 164.31 213.00 174.00
C 222.11 181.63 229.84 191.33 239.00 199.00
C 246.96 189.55 256.99 181.50 265.00 172.00
C 256.38 164.22 247.84 155.66 240.00 147.00 Z"/>
</g>
<g fill="#004D76" fill-opacity="0.99" stroke="None"><path d="
M 179.00 225.00 
C 174.25 224.04 170.33 225.50 172.00 231.00
C 176.75 231.96 180.67 230.50 179.00 225.00 Z"/>
</g>
<g fill="#004D76" fill-opacity="1.00" stroke="None"><path d="
M 320.00 228.00 
C 312.22 225.61 312.38 232.29 313.00 238.00
C 307.32 237.40 300.52 237.25 303.00 245.00
C 306.33 245.00 309.67 245.00 313.00 245.00
C 315.28 252.75 307.13 271.18 320.00 269.00
C 320.00 261.00 320.00 253.00 320.00 245.00
C 325.87 244.76 335.96 247.43 333.00 238.00
C 328.67 238.00 324.33 238.00 320.00 238.00
C 320.00 234.67 320.00 231.33 320.00 228.00 Z"/>
</g>
<g fill="#004D76" fill-opacity="0.99" stroke="None"><path d="
M 85.00 269.00 
C 83.31 259.79 88.18 250.47 82.75 242.25 C 77.32 234.02 67.61 240.87 61.07 238.93 C 54.53 236.99 38.51 236.52 42.00 247.00 C 45.49 257.48 35.72 267.94 48.00 269.00
C 48.00 261.00 48.00 253.00 48.00 245.00
C 56.52 242.72 62.22 246.04 61.00 254.00 C 59.78 261.96 59.11 270.68 68.00 269.00
C 68.00 261.00 68.00 253.00 68.00 245.00
C 88.15 239.38 68.51 272.17 85.00 269.00 Z"/>
</g>
<g fill="#004D76" fill-opacity="0.96" stroke="None"><path d="
M 118.00 238.00 
C 111.29 235.96 94.99 236.32 92.33 244.33 C 89.67 252.34 91.24 266.45 99.93 268.07 C 108.62 269.70 121.39 270.36 124.22 262.22 C 127.05 254.09 126.56 240.60 118.00 238.00
M 117.00 246.00 
C 118.68 247.19 119.50 259.73 116.74 260.74 C 113.98 261.76 102.99 261.31 100.33 260.67 C 97.67 260.03 97.93 246.69 100.26 246.26 C 102.59 245.83 114.91 244.52 117.00 246.00 Z"/>
</g>
<g fill="#004D76" fill-opacity="1.00" stroke="None"><path d="
M 165.00 269.00 
C 163.70 260.59 167.47 252.45 163.30 244.70 C 159.14 236.94 153.15 239.79 145.00 238.00 C 136.85 236.21 128.99 241.00 132.00 250.00 C 135.01 259.00 126.38 269.06 138.00 269.00
C 138.00 261.00 138.00 253.00 138.00 245.00
C 144.67 244.98 156.64 242.90 158.00 251.00 C 159.36 259.10 153.60 270.81 165.00 269.00 Z"/>
</g>
<g fill="#004D76" fill-opacity="0.99" stroke="None"><path d="
M 179.00 238.00 
C 168.82 234.97 172.18 247.81 172.00 254.00 C 171.82 260.19 169.34 271.98 179.00 269.00
C 179.00 258.67 179.00 248.33 179.00 238.00 Z"/>
</g>
<g fill="#004D76" fill-opacity="0.99" stroke="None"><path d="
M 196.00 258.00 
C 204.85 260.49 221.30 257.14 218.97 246.03 C 216.64 234.92 201.85 236.71 193.23 238.23 C 184.61 239.75 183.85 257.43 187.25 263.75 C 190.65 270.07 212.47 273.82 209.00 262.00
C 202.41 260.25 193.96 266.23 193.00 257.00 C 192.04 247.77 193.78 245.33 202.00 245.00 C 210.22 244.67 215.59 247.67 209.00 251.00 C 202.41 254.33 193.58 246.28 196.00 258.00 Z"/>
</g>
<g fill="#004D76" fill-opacity="1.00" stroke="None"><path d="
M 250.00 238.00 
C 242.80 238.94 232.28 235.84 226.25 240.25 C 220.23 244.67 224.84 258.19 233.00 255.00 C 241.16 251.81 251.58 259.30 242.00 262.00 C 232.42 264.70 223.28 256.62 224.00 269.00
C 233.46 267.16 249.95 274.11 253.00 261.00 C 256.05 247.89 239.35 246.35 230.00 248.00
C 232.93 239.40 253.68 252.12 250.00 238.00 Z"/>
</g>
<g fill="#004D76" fill-opacity="0.99" stroke="None"><path d="
M 297.00 238.00 
C 289.53 238.12 279.53 236.98 273.25 240.25 C 266.96 243.52 270.52 257.06 278.00 255.00 C 285.48 252.94 298.48 257.90 289.00 262.00 C 279.52 266.10 270.20 255.60 271.00 269.00
C 280.25 267.26 297.21 273.99 300.00 261.00 C 302.79 248.01 286.28 246.43 277.00 248.00
C 279.93 239.40 300.68 252.12 297.00 238.00 Z"/>
</g>
<g fill="#004D76" fill-opacity="0.95" stroke="None"><path d="
M 364.00 238.00 
C 348.98 233.44 336.56 239.68 337.00 255.00 C 337.44 270.31 353.39 271.41 364.92 267.92 C 376.45 264.42 372.40 240.55 364.00 238.00
M 363.00 246.00 
C 363.00 251.00 363.00 256.00 363.00 261.00
C 357.00 261.00 351.00 261.00 345.00 261.00
C 345.00 256.00 345.00 251.00 345.00 246.00
C 351.00 246.00 357.00 246.00 363.00 246.00 Z"/>
</g>
<g fill="#004D76" fill-opacity="0.99" stroke="None"><path d="
M 404.00 238.00 
C 396.69 237.81 379.96 235.91 377.93 244.93 C 375.89 253.94 373.28 269.99 384.00 269.00
C 385.73 262.78 380.67 249.55 386.33 245.33 C 391.99 241.11 407.51 251.10 404.00 238.00 Z"/>
</g>
<g fill="#004D76" fill-opacity="0.99" stroke="None"><path d="
M 419.00 258.00 
C 428.05 260.22 443.37 257.52 440.99 246.01 C 438.61 234.50 424.43 237.39 415.70 238.70 C 406.96 240.00 406.81 258.57 410.25 264.75 C 413.69 270.94 434.68 272.69 432.00 262.00
C 426.51 259.99 416.83 266.23 415.00 258.00 C 413.17 249.77 415.45 245.15 423.00 245.00 C 430.55 244.85 438.55 246.71 432.00 251.00 C 425.45 255.29 416.54 245.57 419.00 258.00 Z"/>
</g>
<g fill="#004D76" fill-opacity="0.01" stroke="None"><path d="
M 117.00 246.00 
C 114.91 244.52 102.59 245.83 100.26 246.26 C 97.93 246.69 97.67 260.03 100.33 260.67 C 102.99 261.31 113.98 261.76 116.74 260.74 C 119.50 259.73 118.68 247.19 117.00 246.00 Z"/>
</g>
<g fill="#004D76" fill-opacity="0.01" stroke="None"><path d="
M 363.00 246.00 
C 357.00 246.00 351.00 246.00 345.00 246.00
C 345.00 251.00 345.00 256.00 345.00 261.00
C 351.00 261.00 357.00 261.00 363.00 261.00
C 363.00 256.00 363.00 251.00 363.00 246.00 Z"/>
</g>
<g fill="#004D76" fill-opacity="0.98" stroke="None"><path d="
M 263.00 262.00 
C 258.95 260.56 256.18 266.87 260.32 268.66 C 264.46 270.45 266.65 263.30 263.00 262.00 Z"/>
</g>
</svg>